<!DOCTYPE svg PUBLIC "-//W3C//DTD SVG 1.1//EN" "http://www.w3.org/Graphics/SVG/1.1/DTD/svg11.dtd">
<!-- Uploaded to: SVG Repo, www.svgrepo.com, Transformed by: SVG Repo Mixer Tools -->
<svg fill="#000000" width="64px" height="64px" viewBox="0 0 24 24" id="delete-alt-2" data-name="Flat Color" xmlns="http://www.w3.org/2000/svg" class="icon flat-color">
<g id="SVGRepo_bgCarrier" stroke-width="0"/>
<g id="SVGRepo_tracerCarrier" stroke-linecap="round" stroke-linejoin="round"/>
<g id="SVGRepo_iconCarrier">
<path id="secondary" d="M16,8a1,1,0,0,1-1-1V4H9V7A1,1,0,0,1,7,7V4A2,2,0,0,1,9,2h6a2,2,0,0,1,2,2V7A1,1,0,0,1,16,8Z" style="fill: #d62828;"/>
<path id="primary" d="M20,6H4A1,1,0,0,0,4,8H5.07l.87,12.14a2,2,0,0,0,2,1.86h8.14a2,2,0,0,0,2-1.86h0L18.93,8H20a1,1,0,0,0,0-2Z" style="fill: #003049;"/>
<path id="secondary-2" data-name="secondary" d="M12,18a1,1,0,0,1-1-1V11a1,1,0,0,1,2,0v6A1,1,0,0,1,12,18Z" style="fill: #d62828;"/>
</g>
</svg>