<?xml version="1.0" encoding="utf-8"?>
<!-- Generator: Adobe Illustrator 21.0.0, SVG Export Plug-In . SVG Version: 6.00 Build 0)  -->
<svg version="1.1" id="color" xmlns="http://www.w3.org/2000/svg" xmlns:xlink="http://www.w3.org/1999/xlink" x="0px" y="0px"
	 viewBox="2 2 24 24" enable-background="new 0 0 24 24" xml:space="preserve">
<path fill="#FFC107" d="M0,10.5v4C0,16.93,6.28,17,7,17c0.24,0,1.09-0.01,2.12-0.11C9.04,16.51,9,16.12,9,15.74
	c0-1.07,0.29-2.07,0.81-2.93c0.6-1.02,1.51-1.83,2.6-2.31H0z"/>
<path fill="#FFD54F" d="M0,6.5v4C0,12.93,6.28,13,7,13c0.29,0,1.48-0.01,2.81-0.19c0.6-1.02,1.51-1.83,2.6-2.31
	c0.5-0.23,1.03-0.38,1.59-0.44V6.5H0z"/>
<path fill="#F44336" d="M17.5,24c-0.157,0-0.314-0.049-0.447-0.148C16.433,23.391,11,19.25,11,15.738C11,13.677,12.683,12,14.75,12
	c1.063,0,2.054,0.446,2.75,1.194C18.196,12.446,19.187,12,20.25,12c2.067,0,3.75,1.677,3.75,3.738c0,3.512-5.433,7.653-6.053,8.114
	C17.814,23.951,17.657,24,17.5,24z"/>
<path fill="#FFC107" d="M7,9C6.283,9,0,8.93,0,6.5v-4h14v4C14,8.93,7.717,9,7,9z"/>
<path fill="#FFD54F" d="M7,5C6.283,5,0,4.93,0,2.5S6.283,0,7,0s7,0.07,7,2.5S7.717,5,7,5z"/>
</svg>
