<!DOCTYPE svg PUBLIC "-//W3C//DTD SVG 1.1//EN" "http://www.w3.org/Graphics/SVG/1.1/DTD/svg11.dtd">
<!-- Uploaded to: SVG Repo, www.svgrepo.com, Transformed by: SVG Repo Mixer Tools -->
<svg width="64px" height="64px" viewBox="0 0 32 32" xmlns="http://www.w3.org/2000/svg" fill="#000000">
<g id="SVGRepo_bgCarrier" stroke-width="0"/>
<g id="SVGRepo_tracerCarrier" stroke-linecap="round" stroke-linejoin="round"/>
<g id="SVGRepo_iconCarrier"> <defs> <style>.cls-1{fill:#8c9eff;}.cls-2{fill:#5f7cf9;}</style> </defs> <title/> <g id="Right"> <path class="cls-1" d="M20.53,15.15l-8-5A1,1,0,0,0,11,11V21a1,1,0,0,0,.52.87A.91.91,0,0,0,12,22a1,1,0,0,0,.53-.15l8-5a1,1,0,0,0,0-1.7Z"/> <path class="cls-2" d="M21,16H11v5a1,1,0,0,0,.52.87A.91.91,0,0,0,12,22a1,1,0,0,0,.53-.15l8-5A1,1,0,0,0,21,16Z"/> </g> </g>
</svg>